# Blender v2.63 (sub 0) OBJ File: 'module.blend'
# www.blender.org
mtllib cube.mtl
o cube_Cube
v -1.000000 -1.000000 1.000000
v -1.000000 -1.000000 -1.000000
v 1.000000 -1.000000 -1.000000
v 1.000000 -1.000000 1.000000
v -1.000000 1.000000 1.000000
v -1.000000 1.000000 -1.000000
v 1.000000 1.000000 -1.000000
v 1.000000 1.000000 1.000000
vt 1.000000 -1.000000
vt 0.000000 -1.000000
vt 0.000000 0.000000
vt 1.000000 0.000000
vt -1.000000 0.000000
vt -1.000000 -1.000000
vt 0.000000 1.000000
vt 1.000000 1.000000
vt -1.000000 1.000000
vn -1.000000 -0.000000 0.000000
vn 0.000000 0.000000 -1.000000
vn 1.000000 -0.000000 0.000000
vn 0.000000 0.000000 1.000000
vn -0.000000 -1.000000 0.000000
vn -0.000000 1.000000 0.000000
usemtl cube_paisley.jpg
s off
f 2/1/1 1/2/1 5/3/1
f 2/1/1 5/3/1 6/4/1
f 6/3/2 7/4/2 3/1/2
f 6/3/2 3/1/2 2/2/2
f 7/3/3 8/5/3 4/6/3
f 7/3/3 4/6/3 3/2/3
f 1/6/4 4/2/4 8/3/4
f 1/6/4 8/3/4 5/5/4
f 1/3/5 2/7/5 3/8/5
f 1/3/5 3/8/5 4/4/5
f 8/3/6 7/7/6 6/9/6
f 8/3/6 6/9/6 5/5/6
